<svg width="18" height="14" viewBox="0 0 18 14" fill="none" xmlns="http://www.w3.org/2000/svg">
<path d="M16.7041 5.96179C17.0986 6.47778 17.0986 7.17436 16.7041 7.68952C15.4616 9.31155 12.4805 12.6513 9.00013 12.6513C5.51971 12.6513 2.53864 9.31155 1.29611 7.68952C1.10419 7.44245 1 7.13851 1 6.82566C1 6.5128 1.10419 6.20886 1.29611 5.96179C2.53864 4.33977 5.51971 1 9.00013 1C12.4805 1 15.4616 4.33977 16.7041 5.96179V5.96179Z" fill="white" stroke="#408BF9" stroke-width="2" stroke-linecap="round" stroke-linejoin="round"/>
<path d="M9.00013 9.3224C10.379 9.3224 11.4968 8.20458 11.4968 6.82569C11.4968 5.44679 10.379 4.32898 9.00013 4.32898C7.62123 4.32898 6.50342 5.44679 6.50342 6.82569C6.50342 8.20458 7.62123 9.3224 9.00013 9.3224Z" fill="white" stroke="#408BF9" stroke-width="2" stroke-linecap="round" stroke-linejoin="round"/>
</svg>
