<svg xmlns="http://www.w3.org/2000/svg" xmlns:cc="http://web.resource.org/cc/" xmlns:svg="http://www.w3.org/2000/svg" xmlns:xlink="http://www.w3.org/1999/xlink" id="svg2" width="32" height="32" version="1.0"><metadata id="metadata7"/><path style="fill:gray;fill-rule:evenodd;stroke:#000;stroke-width:.1;stroke-linecap:butt;stroke-linejoin:miter;stroke-miterlimit:4;stroke-dasharray:none;stroke-opacity:1" id="path3138" d="M 14.863234,13.93212 L 9.0700837,22.083158 L 8.7265574,24.29268 L 10.700291,23.241788 L 16.493442,15.09075 L 14.863234,13.93212 z"/><image id="image9" width="32" height="32" x="0" y="0" xlink:href="svg/waypoint/pin.png"/><g id="g2161" style="fill:#0f0"><path id="path2161" d="M 21 22 A 7 5 0 1 1 7,22 A 7 5 0 1 1 21 22 z" transform="matrix(0.8075597,0.5160123,-0.5175485,0.8051626,16.802352,-11.469939)" style="opacity:1;fill:#0f0;fill-opacity:1;stroke:#030000;stroke-width:.1;stroke-linejoin:round;stroke-miterlimit:4;stroke-dasharray:none;stroke-dashoffset:0;stroke-opacity:1"/><rect id="rect3134" width="8.246" height="11.09" x="17.263" y="-7.842" ry="3.893" transform="matrix(0.8190901,0.5736649,-0.5849116,0.8110971,0,0)" style="opacity:1;fill:#0f0;fill-opacity:1;stroke:#030000;stroke-width:.11176623;stroke-linejoin:round;stroke-miterlimit:4;stroke-dasharray:none;stroke-dashoffset:0;stroke-opacity:1"/><path id="path3136" d="M 21 22 A 7 5 0 1 1 7,22 A 7 5 0 1 1 21 22 z" transform="matrix(0.6433843,0.3773464,-0.4123319,0.5887944,21.080317,-11.253533)" style="opacity:1;fill:#0f0;fill-opacity:1;stroke:#030000;stroke-width:.1;stroke-linejoin:round;stroke-miterlimit:4;stroke-dasharray:none;stroke-dashoffset:0;stroke-opacity:1"/></g></svg>